<?xml version="1.0" encoding="UTF-8"?>
<svg width="50px" height="50px" viewBox="0 0 50 50" version="1.1" xmlns="http://www.w3.org/2000/svg" xmlns:xlink="http://www.w3.org/1999/xlink">
    <!-- Generator: sketchtool 49.2 (51160) - http://www.bohemiancoding.com/sketch -->
    <title>3DEB38E1-4700-466B-A45E-D4172641C338</title>
    <desc>Created with sketchtool.</desc>
    <defs></defs>
    <g id="Design---inclu-huts" stroke="none" stroke-width="1" fill="none" fill-rule="evenodd">
        <g id="Assets" transform="translate(-1060.000000, -1647.000000)">
            <g id="img_mobilehome_pillar_01" transform="translate(1060.000000, 1647.000000)">
                <circle id="Oval" stroke="#C9B2A4" cx="25" cy="25" r="24.5"></circle>
                <path d="M38.8983485,30.6755097 L36.7687662,29.7245948 C37.9367272,26.8173451 37.9474335,23.7134887 37.004305,20.9347148 L39.1806057,20.1015693 C40.3368871,23.4390179 40.3252075,27.1803863 38.8983485,30.6755097 Z M30.8160582,38.8327441 L29.9858326,36.6632565 C32.6857692,35.5108683 34.9915189,33.4270312 36.3774993,30.6161383 L38.5012417,31.5651067 C36.8505235,34.95998 34.0727229,37.4652564 30.8160582,38.8327441 Z M19.3340282,38.8979552 L20.2859164,36.768373 C21.8227584,37.3854457 23.4141053,37.6949554 24.9850129,37.6949554 C26.3865661,37.6949554 27.7667067,37.4545501 29.0767696,37.0097516 L29.9079685,39.1802125 C26.5695466,40.3364939 22.8291515,40.3257876 19.3340282,38.8979552 Z M11.1699807,30.8195582 L13.3530945,29.9844661 C14.5054827,32.6844026 16.5854266,34.9862591 19.3953461,36.3722395 L18.4444312,38.5018218 C15.1449413,36.9007419 12.5890533,34.202752 11.1699807,30.8195582 Z M11.1106093,19.3346082 L13.2401916,20.2855232 C12.0722305,23.1927728 12.0615242,26.2966292 13.0046527,29.0754031 L10.8215389,29.9104952 C9.6204857,26.4445709 9.72170899,22.7294816 11.1106093,19.3346082 Z M19.1899796,11.1705607 L20.0231252,13.348808 C17.2219653,14.5430482 14.9814268,16.6628974 13.636325,19.3959262 L11.5067427,18.4459846 C13.1087959,15.1445481 15.8067859,12.5896334 19.1899796,11.1705607 Z M30.6749296,11.1121627 L29.7240147,13.2397983 C26.897549,12.1039562 23.8160786,12.0192791 20.9321881,13.0003663 L20.0980693,10.8211457 C21.7001225,10.2653909 23.3547339,9.97437398 25.0093454,9.97437398 C26.9335612,9.97437398 28.8499905,10.3666142 30.6749296,11.1121627 Z M33.0196114,21.417472 C32.2283178,19.6480111 30.8579102,18.1374482 29.0251847,17.1943197 L30.2165049,14.526502 C32.7130216,15.765514 34.6518369,17.8123657 35.7526401,20.3721469 L33.0196114,21.417472 Z M28.5949857,33.0270045 C30.3625,32.2366842 31.8613833,30.8526504 32.8045119,29.0208982 L35.4830358,30.217085 C34.2080117,32.782706 32.102762,34.6855092 29.6354443,35.7473804 L28.5949857,33.0270045 Z M21.8743434,33.2119317 C22.8963093,33.601252 23.9494208,33.7998054 24.991826,33.7998054 C25.9115953,33.7998054 26.8167651,33.6421307 27.6820295,33.3647399 L28.7273546,36.0948488 C26.1811996,36.9513535 23.3440276,36.9396739 20.6820498,35.8807226 L21.8743434,33.2119317 Z M16.9844799,28.5945925 C17.8030259,30.427318 19.1987393,31.8999222 20.9837731,32.8167715 L19.7924529,35.4836159 C17.2258585,34.2085918 15.3230554,32.103342 14.2621574,29.6369977 L16.9844799,28.5945925 Z M21.4149454,16.9860333 C19.5822199,17.803606 18.1096157,19.1983461 17.1927663,20.9843532 L14.5249487,19.7930329 C15.7629873,17.2965163 17.8117856,15.357701 20.3705936,14.2568977 L21.4149454,16.9860333 Z M28.1355877,16.7972129 C26.2619836,16.0798902 24.2355712,16.024412 22.3240084,16.6385649 L21.2786832,13.9074827 C22.4972559,13.497723 23.7518407,13.280677 25.0083721,13.280677 C26.4731899,13.280677 27.9321678,13.5755871 29.3269079,14.1303686 L28.1355877,16.7972129 Z M25.9291147,24.1300615 L28.6280779,18.0829433 C30.2174782,18.9151156 31.4117184,20.2280984 32.1105484,21.7649404 L25.9291147,24.1300615 Z M25.878503,25.9287215 L31.9265945,28.628658 C31.0944223,30.2180583 29.7814394,31.4122984 28.2445974,32.1121017 L25.878503,25.9287215 Z M24.9694401,26.2771632 L27.3355344,32.4595701 C25.7247215,32.9647133 23.9494208,32.9520604 22.2704768,32.3242813 L24.9694401,26.2771632 Z M24.0808164,25.8790831 L21.3799065,31.9281479 C19.8304116,31.1193349 18.6167054,29.8374977 17.8935429,28.2461508 L24.0808164,25.8790831 Z M22.6705035,17.5456813 C23.4364912,17.305276 24.221945,17.1777735 25.0073988,17.1777735 C25.9330079,17.1777735 26.8547238,17.3549143 27.738481,17.6868099 L25.0385444,23.733928 L22.6705035,17.5456813 Z M24.1294814,24.0813965 L18.08139,21.3814599 C18.890203,19.831965 20.1720402,18.6182588 21.7633871,17.8950963 L24.1294814,24.0813965 Z M17.6852565,22.2700836 L23.733348,24.9709934 L17.5470478,27.3380611 C17.0224386,25.6707967 17.0711037,23.9062023 17.6852565,22.2700836 Z M32.3237012,27.7400343 L26.2756098,25.0391245 L32.4589901,22.6730301 C32.9641332,24.2848163 32.9524536,26.0601171 32.3237012,27.7400343 Z M14.1297885,20.6816566 L16.7966328,21.8729768 C16.0783368,23.746581 16.0228587,25.7749399 16.6379848,27.6855295 L13.9137157,28.7279347 C13.057211,26.1817797 13.0698639,23.3446077 14.1297885,20.6816566 Z M35.8811158,29.3284613 L33.2123249,28.1371411 C33.9471671,26.211952 33.95982,24.1709401 33.3670798,22.3255617 L36.1001085,21.2802366 C36.9887322,23.9217751 36.9118414,26.7404544 35.8811158,29.3284613 Z M38.8331373,19.1925063 L36.6558633,20.0256518 C35.5044484,17.3266886 33.4235312,15.0238588 30.6136117,13.6388517 L31.5645266,11.5092694 C34.9593999,13.1590144 37.4646763,15.9358417 38.8331373,19.1925063 Z M31.5265679,10.3987332 C27.6246048,8.65652464 23.2788165,8.53778193 19.288283,10.0658643 C15.2977495,11.5929733 12.1403616,14.5819802 10.3981531,18.4839433 C8.65691787,22.3849331 8.53817516,26.7307214 10.0652842,30.7212548 C11.5914199,34.7117883 14.5823734,37.8691762 18.4823899,39.6113848 C20.5944527,40.55354 22.804819,41.0002851 24.9801464,41.0002851 C31.1022087,41.0002851 36.9575866,37.4681763 39.6108047,31.5261746 C43.2071513,23.4730834 39.5796591,13.9950798 31.5265679,10.3987332 Z" id="Fill-1" fill="#9F8575"></path>
            </g>
        </g>
    </g>
</svg>