<?xml version="1.0" encoding="UTF-8"?>
<svg width="50px" height="50px" viewBox="0 0 50 50" version="1.1" xmlns="http://www.w3.org/2000/svg" xmlns:xlink="http://www.w3.org/1999/xlink">
    <!-- Generator: sketchtool 49.2 (51160) - http://www.bohemiancoding.com/sketch -->
    <title>7F7AA3AD-458D-44CD-8759-F8ABCEF8BEAA</title>
    <desc>Created with sketchtool.</desc>
    <defs></defs>
    <g id="Design---inclu-huts" stroke="none" stroke-width="1" fill="none" fill-rule="evenodd">
        <g id="Assets" transform="translate(-1194.000000, -1647.000000)">
            <g id="img_mobilehome_pillar_03" transform="translate(1194.000000, 1647.000000)">
                <circle id="Oval" stroke="#C9B2A4" cx="25" cy="25" r="24.5"></circle>
                <path d="M39.0938,24.7932 L33.8908,19.5912 L36.0948,17.3872 L41.2978,22.5892 L39.0938,24.7932 Z M36.5528,25.8882 C36.0328,26.4082 35.6848,27.2772 35.3168,28.1972 C34.9968,28.9952 34.6658,29.8212 34.2778,30.2102 L27.9618,36.5252 C27.6518,36.8352 27.1458,36.8352 26.8348,36.5252 C26.5248,36.2142 26.5248,35.7102 26.8338,35.3982 L28.5108,33.7212 C28.7058,33.5262 28.7058,33.2102 28.5108,33.0142 C28.3148,32.8192 27.9988,32.8192 27.8028,33.0142 L26.1278,34.6902 C26.1268,34.6912 26.1258,34.6922 26.1258,34.6922 L26.1098,34.7082 C25.7998,35.0192 25.2928,35.0192 24.9828,34.7082 C24.8318,34.5572 24.7488,34.3572 24.7488,34.1442 C24.7488,33.9312 24.8318,33.7312 24.9828,33.5802 L26.6578,31.9042 C26.8538,31.7092 26.8538,31.3932 26.6578,31.1972 C26.4628,31.0022 26.1468,31.0022 25.9508,31.1972 L24.2758,32.8732 L24.2578,32.8912 C23.9558,33.1922 23.4318,33.1922 23.1298,32.8912 C22.8198,32.5802 22.8198,32.0742 23.1298,31.7632 L24.8058,30.0872 C25.0008,29.8922 25.0008,29.5762 24.8058,29.3802 C24.6108,29.1852 24.2938,29.1852 24.0988,29.3802 L22.4228,31.0562 L22.4058,31.0742 C22.1038,31.3762 21.5798,31.3752 21.2778,31.0742 C21.1268,30.9232 21.0438,30.7232 21.0438,30.5102 C21.0438,30.2972 21.1268,30.0972 21.2778,29.9462 L25.6168,25.6072 C25.7438,25.4802 25.7928,25.2952 25.7458,25.1232 C25.6998,24.9502 25.5638,24.8152 25.3908,24.7702 L23.3048,24.2232 C22.6958,24.0632 22.3208,23.4552 22.4518,22.8392 C22.5208,22.5112 22.7188,22.2372 23.0088,22.0672 C23.2978,21.8982 23.6348,21.8602 23.9508,21.9592 C25.5198,22.4462 26.7448,22.7252 27.5908,22.7882 C29.9828,22.9662 32.3938,22.2732 33.8998,21.0142 L37.6638,24.7772 C37.2428,25.1982 36.5858,25.8552 36.5528,25.8882 Z M16.0928,23.1012 L17.8718,21.3212 L23.1808,26.6292 L21.4008,28.4092 L16.0928,23.1012 Z M14.4328,23.3472 L11.3468,20.2612 L15.0498,16.5582 L18.1358,19.6442 L14.4328,23.3472 Z M11.2928,26.4872 L8.2068,23.4012 L9.2108,22.3972 L12.2968,25.4822 L11.2928,26.4872 Z M12.6088,24.3802 L10.3128,22.0852 C10.6278,21.9302 10.8808,21.6782 11.0278,21.3562 L13.3378,23.6662 C13.0158,23.8132 12.7638,24.0652 12.6088,24.3802 Z M22.5498,15.2302 L22.0888,15.6902 C21.1028,15.0362 19.7398,15.1202 18.9008,15.9582 C18.2598,16.5992 18.0668,17.5482 18.3078,18.4012 L15.7568,15.8512 L16.3388,15.2702 C18.0488,13.5592 20.5938,13.5692 22.5498,15.2302 Z M23.8878,25.9222 L23.1938,25.2282 L24.2938,25.5162 L23.8878,25.9222 Z M42.3578,22.2362 L36.4478,16.3272 C36.2528,16.1312 35.9368,16.1312 35.7408,16.3272 L32.8308,19.2372 C32.7368,19.3312 32.6838,19.4582 32.6838,19.5912 C32.6838,19.7242 32.7368,19.8512 32.8308,19.9442 L33.1928,20.3062 C31.8798,21.3692 29.7798,21.9452 27.6648,21.7912 C26.9058,21.7342 25.7238,21.4622 24.2478,21.0032 C23.6638,20.8222 23.0288,20.8962 22.5028,21.2052 C21.9758,21.5142 21.5998,22.0332 21.4728,22.6312 C21.4098,22.9282 21.4138,23.2232 21.4688,23.5032 L18.5788,20.6142 L19.1968,19.9972 L19.6668,19.5272 C19.8618,19.3322 19.8618,19.0152 19.6668,18.8202 C19.3818,18.5352 19.2108,18.1372 19.1998,17.7282 C19.1878,17.3172 19.3328,16.9402 19.6078,16.6652 C20.1798,16.0932 21.1698,16.1172 21.7708,16.7162 C21.9658,16.9112 22.2818,16.9112 22.4778,16.7162 L23.6238,15.5692 C23.7178,15.4762 23.7708,15.3492 23.7708,15.2162 C23.7708,15.0832 23.7178,14.9562 23.6238,14.8622 C21.2598,12.4992 17.8238,12.3692 15.6318,14.5632 L14.6968,15.4982 L10.3918,19.8022 C10.3118,19.8822 10.2608,19.9872 10.2488,20.1002 L10.1728,20.7882 C10.1438,21.0502 9.9228,21.2512 9.6588,21.2542 L9.1348,21.2602 C9.0038,21.2622 8.8798,21.3142 8.7868,21.4072 L7.1468,23.0472 C6.9508,23.2432 6.9508,23.5592 7.1468,23.7542 L10.9388,27.5472 C11.0328,27.6412 11.1598,27.6942 11.2928,27.6942 C11.4258,27.6942 11.5518,27.6412 11.6458,27.5472 L13.2868,25.9072 C13.3788,25.8142 13.4318,25.6902 13.4328,25.5592 L13.4398,25.0362 C13.4428,24.7722 13.6428,24.5502 13.9058,24.5222 L14.5938,24.4452 C14.7068,24.4322 14.8118,24.3812 14.8918,24.3012 L15.3858,23.8082 L20.6938,29.1162 L20.5708,29.2392 C20.2308,29.5792 20.0438,30.0302 20.0438,30.5102 C20.0438,30.9902 20.2318,31.4412 20.5708,31.7812 C20.9098,32.1202 21.3618,32.3072 21.8418,32.3072 C21.8618,32.3072 21.8808,32.3022 21.8998,32.3012 C21.8938,32.7712 22.0668,33.2412 22.4228,33.5982 C22.7738,33.9482 23.2338,34.1242 23.6938,34.1242 C23.7138,34.1242 23.7328,34.1192 23.7528,34.1182 C23.7458,34.5872 23.9188,35.0582 24.2758,35.4152 C24.6258,35.7652 25.0858,35.9402 25.5458,35.9402 C25.5658,35.9402 25.5848,35.9362 25.6048,35.9352 C25.5978,36.4042 25.7708,36.8752 26.1278,37.2322 C26.4778,37.5832 26.9378,37.7572 27.3988,37.7572 C27.8588,37.7572 28.3188,37.5822 28.6688,37.2322 L34.9848,30.9172 C35.5178,30.3832 35.8868,29.4602 36.2448,28.5682 C36.5598,27.7832 36.8848,26.9702 37.2578,26.5972 C37.2898,26.5652 37.9488,25.9062 38.3708,25.4842 L38.7398,25.8542 C38.8378,25.9512 38.9658,26.0002 39.0938,26.0002 C39.2218,26.0002 39.3498,25.9512 39.4478,25.8542 L42.3578,22.9432 C42.4518,22.8492 42.5048,22.7222 42.5048,22.5892 C42.5048,22.4572 42.4518,22.3302 42.3578,22.2362 Z" id="Fill-1" fill="#9F8575"></path>
            </g>
        </g>
    </g>
</svg>