<?xml version="1.0" encoding="utf-8"?>
<!-- Generator: Adobe Illustrator 19.0.0, SVG Export Plug-In . SVG Version: 6.00 Build 0)  -->
<svg version="1.1" id="Layer_1" xmlns="http://www.w3.org/2000/svg" xmlns:xlink="http://www.w3.org/1999/xlink" x="0px" y="0px"
	 width="451.4px" height="117.5px" viewBox="0 0 451.4 117.5" style="enable-background:new 0 0 451.4 117.5;" xml:space="preserve"
	>
<style type="text/css">
	.st0{fill:#353535;}
</style>
<path class="st0" d="M119.9,31h5.4c0.6,0,1,0.5,1,1v63.5c0,0.6-0.5,1-1,1h-5.4c-0.6,0-1-0.5-1-1V32C118.9,31.5,119.4,31,119.9,31"/>
<path class="st0" d="M139.6,46.5c0-10.7,8.1-16,15.7-16c7.6,0,15.7,5.3,15.7,16v2.2c0,0.6-0.5,1.1-1.1,1.1h-5.2
	c-0.6,0-1.1-0.5-1.1-1.1v-2.2c0-4.5-3.4-8.6-8.3-8.6c-5,0-8.3,4.1-8.3,8.6v34.6c0,4.5,3.3,8.6,8.3,8.6c5.4,0,8.3-4.1,8.3-8.6V67.8
	c0-0.6-0.5-1.1-1.1-1.1h-5.3c-0.6,0-1.1-0.5-1.1-1.1v-4.1c0-0.6,0.5-1.1,1.1-1.1H170c0.6,0,1.1,0.5,1.1,1.1v19.5
	c0,10.7-8.1,16-15.7,16c-7.6,0-15.7-5.3-15.7-16V46.5z"/>
<path class="st0" d="M183.2,31h5.2c0.6,0,1.1,0.5,1.1,1.1V88c0,0.6,0.5,1.1,1.1,1.1H209c0.6,0,1.1,0.5,1.1,1.1v5.2
	c0,0.6-0.5,1.1-1.1,1.1h-25.8c-0.6,0-1.1-0.5-1.1-1.1V32.1C182.1,31.5,182.6,31,183.2,31"/>
<path class="st0" d="M249.3,81.8c0,8.6-6.8,15.3-15.2,15.3c-8.4,0-15.2-6.7-15.2-15.3V31.9c0-0.5,0.4-0.9,0.9-0.9h5.5
	c0.5,0,0.9,0.4,0.9,0.9v48.9c0,4.6,3.3,8.8,7.8,8.8c4.4,0,7.8-4.2,7.8-8.8V31.9c0-0.5,0.4-0.9,0.9-0.9h5.5c0.5,0,0.9,0.4,0.9,0.9
	V81.8z"/>
<path class="st0" d="M290.7,81.9c0,8.1-6.5,15.2-14.9,15.2c-7.2,0-15.5-3.5-15.5-15.5V45.5c0-8.6,6.2-15.1,15.3-15.1
	c8.6,0,15.1,6.5,15.1,15.6v3c0,0.4-0.3,0.7-0.7,0.7h-6c-0.4,0-0.7-0.3-0.7-0.7v-2.5c0-3.7-2.4-8.8-7.8-8.8c-6.1,0-7.8,5.2-7.8,9.6
	V81c0,3.8,2.1,8.7,7.7,8.7c4.7,0,7.9-3.5,7.9-8.6v-2.6c0-0.4,0.3-0.7,0.7-0.7h6c0.4,0,0.7,0.3,0.7,0.7V81.9z"/>
<path class="st0" d="M301.1,31.6c0-0.3,0.3-0.6,0.6-0.6h14.5c11.1,0,16.8,6.5,16.8,19.2c0,7.4-2.3,11.8-8,15.2
	c-0.2,0.1-0.3,0.4-0.3,0.7l9.7,29.7c0.1,0.4-0.1,0.8-0.5,0.8h-6.7c-0.2,0-0.5-0.2-0.5-0.4l-8.5-27.2c-0.1-0.2-0.3-0.4-0.5-0.4H309
	c-0.3,0-0.6,0.3-0.6,0.6v26.8c0,0.3-0.3,0.6-0.6,0.6h-6.2c-0.3,0-0.6-0.3-0.6-0.6V31.6z M309,62.3h4.3c7.2,0,13.2-5.9,12.8-13.1
	c-0.3-6.2-4.2-11.3-10.8-11.3H309c-0.3,0-0.6,0.3-0.6,0.6v23.3C308.5,62,308.7,62.3,309,62.3"/>
<path class="st0" d="M355.9,31h6.9c0.3,0,0.5,0.2,0.5,0.4l14.4,64.4c0.1,0.3-0.2,0.7-0.5,0.7h-6.2c-0.3,0-0.5-0.2-0.5-0.4l-2.6-13.2
	c-0.1-0.3-0.3-0.4-0.5-0.4h-15.9c-0.3,0-0.5,0.2-0.5,0.4l-2.6,13.2c-0.1,0.3-0.3,0.4-0.5,0.4h-6.3c-0.4,0-0.6-0.3-0.5-0.7l14.4-64.4
	C355.4,31.2,355.6,31,355.9,31 M359.4,43.9h-0.2l-6.5,29.1c-0.1,0.3,0.2,0.7,0.5,0.7h12c0.4,0,0.6-0.3,0.5-0.7L359.4,43.9z"/>
<path class="st0" d="M385.8,31h26.8c0.3,0,0.6,0.3,0.6,0.6v5.6c0,0.3-0.3,0.6-0.6,0.6h-19.4c-0.3,0-0.6,0.3-0.6,0.6v22.7
	c0,0.3,0.3,0.6,0.6,0.6h17c0.3,0,0.6,0.3,0.6,0.6v5.6c0,0.3-0.3,0.6-0.6,0.6h-17c-0.3,0-0.6,0.3-0.6,0.6v26.8c0,0.3-0.3,0.6-0.6,0.6
	h-6.2c-0.3,0-0.6-0.3-0.6-0.6V31.6C385.2,31.3,385.5,31,385.8,31"/>
<path class="st0" d="M431.6,37.8h-10.7c-0.3,0-0.6-0.3-0.6-0.6v-5.7c0-0.3,0.3-0.6,0.6-0.6h29.9c0.3,0,0.6,0.3,0.6,0.6v5.7
	c0,0.3-0.3,0.6-0.6,0.6h-10.7c-0.3,0-0.6,0.3-0.6,0.6v57.5c0,0.3-0.3,0.6-0.6,0.6h-6.2c-0.3,0-0.6-0.3-0.6-0.6V38.4
	C432.2,38.1,431.9,37.8,431.6,37.8"/>
<path class="st0" d="M45.6,0c-9.4,0-18.2,2.9-25.4,7.7C19,10.5,15.7,19.6,19,23.9c3.9,5.2,13,10.8,19.8,12.8s22.1,5.9,30.5,14.6
	c7.7,6.8,11,17,8.2,27.7c-3.3,12.3-13.4,22.2-25.6,25.8c-10.3,3-22.7,1.7-30.3-6.7c-7.3-8-8.6-19.9-1.5-28.4
	c6.7-8.1,18-12.7,28.5-11.8c8.8,0.8,18.7,6.6,19.5,16.2c0.6,8-5.5,14.6-12,18.4c-6.5,3.8-15.6,5.8-22.4,1.7c-7.5-4.6-10-17.5-3-23.5
	c4.4-3.7,10.6-5.2,16.2-4c4.2,0.9,9.8,4.6,8.4,9.6c-1.9,7.4-16.3,13.6-18.1,3c-0.4-2.6,4.9-4,5.4-1.5c0.3,1.7,1.2,3.6,3.3,2.7
	c1.6-0.8,3.4-2.3,3.5-4.2c0.5-6.6-10.1-6.3-13.7-3.6c-4.4,3.4-3.4,10.7-0.4,14.8c2.1,2.9,5.3,4.3,8.9,4c6.6-0.5,13.7-4.9,16.4-11.1
	c3.4-8-3.5-16-11.4-17.4c-9.1-1.7-20.6,2.3-25.1,10.8c-5.1,9.4,0.5,21.6,10.2,25.5c10.2,4,22.1,0.3,29.2-7.8
	c8.6-9.8,10.6-25.1,1-35.9c-3-3.4-17.7-11.3-25-13.3c-7.3-2-19.2-7.9-24.6-14.7c-4.1-5.2-1.6-12.7-0.2-15.8C5.7,20.4,0,32.3,0,45.6
	v62.8c0,12.1,91.1,12.4,91.1-0.6V45.6C91.1,20.4,70.7,0,45.6,0z"/>
</svg>
