<?xml version="1.0" encoding="UTF-8"?>
<svg width="50px" height="50px" viewBox="0 0 50 50" version="1.1" xmlns="http://www.w3.org/2000/svg" xmlns:xlink="http://www.w3.org/1999/xlink">
    <!-- Generator: sketchtool 49.2 (51160) - http://www.bohemiancoding.com/sketch -->
    <title>716FD446-DB95-4130-9AFF-0B6D5CD64634</title>
    <desc>Created with sketchtool.</desc>
    <defs></defs>
    <g id="Design---inclu-huts" stroke="none" stroke-width="1" fill="none" fill-rule="evenodd">
        <g id="Assets" transform="translate(-1127.000000, -1647.000000)">
            <g id="img_mobilehome_pillar_02" transform="translate(1127.000000, 1647.000000)">
                <circle id="Oval" stroke="#C9B2A4" cx="25" cy="25" r="24.5"></circle>
                <path d="M24.0325145,28.9851314 C24.1002783,28.3476601 24.2728924,27.6760418 24.540296,26.9737698 C24.7639282,26.3864531 25.0507794,25.7845888 25.3929067,25.1722503 C24.4313191,23.7886319 24.2358649,21.9778551 24.8587288,20.0982188 C25.4663517,18.2648974 26.8203622,16.5337356 28.5767088,15.3352391 C30.5539507,13.986081 32.899351,13.360466 35.3526711,13.5260782 L35.3189951,14.0249428 L35.3526733,13.5260783 C37.2547038,13.654484 39.1823881,14.2558196 41.082012,15.309672 L43.1069786,16.434559 L42.2081945,16.8461839 L41.0052078,17.3971275 C39.0712506,18.2831528 37.8019872,19.6326858 35.4263672,22.8596386 C35.0949642,23.3096193 34.9491907,23.5064428 34.7654748,23.7502764 C32.7108906,26.4771864 31.2773644,27.6240669 29.308634,27.4911543 C28.5090646,27.4370362 27.7152388,27.1414871 26.8532794,26.568627 L26.1100623,25.9461046 C25.8590791,26.4182651 25.6458616,26.8804697 25.4748407,27.3296156 C25.1626819,28.1494265 25,28.9053224 25,29.5833333 L25,39 L24,39 L24,32.0833333 C24,30.8509714 23.3557347,29.5328457 22.2197686,28.198003 L21.9360409,28.4771171 C21.3111097,28.9744037 20.6764614,29.2883005 20.0089208,29.4246288 C18.5901431,29.7144199 17.2986589,29.2005423 15.7010364,27.9590786 C15.3036282,27.6502647 14.9901085,27.3861716 14.2774174,26.7704356 C11.8975988,24.7136103 10.6772309,23.8897011 8.95933054,23.4793835 L6.78510202,22.9605585 L7.71804337,22.323508 L8.61003723,21.7144182 C10.0751627,20.7150706 11.6192154,20.0435082 13.19927,19.7207108 L13.2993504,20.2105923 L13.1992907,19.7207066 C15.2362065,19.304664 17.2808896,19.4787711 19.1099951,20.226511 C20.7447157,20.8946818 22.1107548,22.0073819 22.8620532,23.2960176 C23.6877456,24.7124372 23.7124034,26.2012089 22.8972269,27.4498953 C23.3404157,27.9596026 23.7213899,28.4717128 24.0325145,28.9851314 Z M22.1945788,26.6951753 C22.6557105,25.845588 22.5985113,24.8295548 21.9981418,23.7996615 C21.3639529,22.7118932 20.1717679,21.740805 18.7316176,21.1521624 C17.0884843,20.480448 15.2451513,20.3234852 13.3994205,20.700476 C11.9676851,20.9929741 10.5604431,21.6016894 9.21501236,22.5123524 C11.1296124,22.9742928 12.4412061,23.8617057 14.9312462,26.0137931 C15.6305079,26.6179266 15.9356476,26.8749608 16.3146286,27.1694554 C17.7041226,28.2491889 18.7429942,28.6625527 19.8088124,28.444855 C20.3137193,28.3417405 20.8063728,28.0980743 21.2731049,27.7303804 L21.546379,27.4626114 C21.3452666,27.2572762 21.1332434,27.0518454 20.9108599,26.8465684 C20.2169864,26.2060697 19.4716622,25.6136325 18.7263263,25.08489 C18.465595,24.8999268 18.2237836,24.7363344 18.007289,24.5959698 C17.8787279,24.512617 17.7881525,24.4561041 17.7419451,24.4282612 L18.2580549,23.5717388 C18.31341,23.6050938 18.4132643,23.667396 18.5513047,23.7568948 C18.7791461,23.9046161 19.0324518,24.0759847 19.3049237,24.2692767 C20.0830253,24.8212633 20.8611386,25.4397636 21.5891401,26.1117649 C21.7992997,26.3057584 22.0012572,26.5002493 22.1945788,26.6951753 Z M26.6127442,25.0679944 L27.4486255,25.7670538 C28.1296401,26.2167761 28.7608777,26.451792 29.3760781,26.4934313 C30.8841179,26.5952418 32.1070273,25.6168634 33.9667985,23.1485155 C34.1475828,22.9085728 34.2919446,22.7136554 34.6211151,22.266706 C37.0990675,18.9007488 38.4443151,17.4704263 40.5887581,16.4879687 L40.8930214,16.3486223 L40.5966475,16.1839839 C38.8215102,15.1991928 37.0351306,14.6419368 35.2853169,14.5238073 L35.3189951,14.0249428 L35.2853191,14.5238074 C33.0538901,14.3731741 30.9309615,14.9394467 29.1403522,16.1612574 C27.560267,17.2394766 26.3445347,18.7938435 25.8079602,20.4127977 C25.3363723,21.8359233 25.4130653,23.1717423 25.9665843,24.2149717 C26.2370861,23.7912631 26.5313271,23.3636717 26.8467975,22.9334848 C27.4590024,22.09866 28.1139433,21.3047922 28.7689779,20.576976 C28.9984128,20.3220484 29.2116779,20.0933725 29.4034284,19.8941511 C29.5193983,19.773663 29.6030914,19.6891245 29.6491557,19.6437581 L30.3508443,20.3562419 C30.3109711,20.3955109 30.2335314,20.4737329 30.1239153,20.5876197 C29.9396893,20.7790234 29.7340091,20.9995662 29.5122721,21.2459407 C28.8782442,21.9504161 28.2441226,22.7190483 27.6532025,23.5248485 C27.2712419,24.0457039 26.9227191,24.5612786 26.6127442,25.0679944 Z" id="Combined-Shape" fill="#9F8575" fill-rule="nonzero"></path>
            </g>
        </g>
    </g>
</svg>